# xmcd CD database file
#
# Track frame offsets:
#	150
#	21879
#	45811
#	67994
#	88889
#	112258
#	134393
#	155236
#	176961
#	199831
#
# Disc length: 2981 seconds
#
# Revision: 0
# Processed by: cddbd v1.5.1PL0 Copyright (c) Steve Scherf et al.
# Submitted via: CDex 1.51
#
DISCID=8f0ba30a
DTITLE=岡村孝子 - Sanctuary
DYEAR=2005
DGENRE=JPop
TTITLE0=青い月
TTITLE1=雨のクラクション
TTITLE2=1日
TTITLE3=looking for dream
TTITLE4=プラネタリュウム
TTITLE5=希望の朝　-Album Mix-
TTITLE6=心のフレーム -Album Mix-
TTITLE7=Lady
TTITLE8=春色のメロディ -Album Mix-
TTITLE9=祈り
EXTD=YEAR: 2005
EXTT0=
EXTT1=
EXTT2=
EXTT3=
EXTT4=
EXTT5=
EXTT6=
EXTT7=
EXTT8=
EXTT9=
PLAYORDER=
